<svg xmlns="http://www.w3.org/2000/svg" xmlns:xlink="http://www.w3.org/1999/xlink" preserveAspectRatio="xMidYMid" width="107" height="107" viewBox="0 0 107 107">
  <defs>
    <style>
      .cls-1 {
        fill: #000;
        opacity: 0.61;
        fill-rule: evenodd;
      }
    </style>
  </defs>
  <path d="M53.500,107.000 C23.953,107.000 -0.000,83.047 -0.000,53.500 C-0.000,23.953 23.953,-0.000 53.500,-0.000 C83.047,-0.000 107.000,23.953 107.000,53.500 C107.000,83.047 83.047,107.000 53.500,107.000 ZM73.799,39.858 C75.361,38.296 75.361,35.763 73.799,34.201 C72.237,32.639 69.704,32.639 68.142,34.201 L54.000,48.343 L39.858,34.201 C38.296,32.639 35.763,32.639 34.201,34.201 C32.639,35.763 32.639,38.296 34.201,39.858 L48.343,54.000 L34.201,68.142 C32.639,69.704 32.639,72.237 34.201,73.799 C35.763,75.361 38.296,75.361 39.858,73.799 L54.000,59.657 L68.142,73.799 C69.704,75.361 72.237,75.361 73.799,73.799 C75.361,72.237 75.361,69.704 73.799,68.142 L59.657,54.000 L73.799,39.858 Z" class="cls-1"/>
</svg>
