<svg xmlns="http://www.w3.org/2000/svg" width="35" height="31.031" viewBox="0 0 35 31.031">
  <metadata><?xpacket begin="﻿" id="W5M0MpCehiHzreSzNTczkc9d"?>
<x:xmpmeta xmlns:x="adobe:ns:meta/" x:xmptk="Adobe XMP Core 5.6-c138 79.159824, 2016/09/14-01:09:01        ">
   <rdf:RDF xmlns:rdf="http://www.w3.org/1999/02/22-rdf-syntax-ns#">
      <rdf:Description rdf:about=""/>
   </rdf:RDF>
</x:xmpmeta>
                                                                                                    
                                                                                                    
                                                                                                    
                                                                                                    
                                                                                                    
                                                                                                    
                                                                                                    
                                                                                                    
                                                                                                    
                                                                                                    
                                                                                                    
                                                                                                    
                                                                                                    
                                                                                                    
                                                                                                    
                                                                                                    
                                                                                                    
                                                                                                    
                                                                                                    
                                                                                                    
                           
<?xpacket end="w"?></metadata>
<defs>
    <style>
      .cls-1 {
        fill: #ff5a11;
        fill-rule: evenodd;
      }
    </style>
  </defs>
  <path id="形状_3" data-name="形状 3" class="cls-1" d="M60.628,169.123a4.328,4.328,0,0,1-4.376-4.28,4.376,4.376,0,0,1-8.751,0,4.377,4.377,0,0,1-8.751,0,4.376,4.376,0,0,1-8.751,0l3-7.835H61.891L65,164.843a4.323,4.323,0,0,1-4.372,4.28h0Zm1.254-12.157,0.124,0.041H61.893l-0.011-.041h0ZM60,154.73H35A1.371,1.371,0,1,1,35,152H60a1.372,1.372,0,1,1,0,2.73h0ZM35.5,171.78v9h24v-9s0.341-.012.5,0h2.007v9.449a2.161,2.161,0,0,1-1.925,1.8H34.927a2.155,2.155,0,0,1-1.925-1.8V171.78h2.5Zm0,0" transform="translate(-30 -152)"/>
</svg>
