<svg xmlns="http://www.w3.org/2000/svg" width="127" height="127" viewBox="0 0 127 127">
  <defs>
    <style>
      .cls-1 {
        fill: #009b62;
        fill-rule: evenodd;
      }
    </style>
  </defs>
  <path id="形状_2" data-name="形状 2" class="cls-1" d="M319.5,254A63.5,63.5,0,1,0,383,317.5,63.507,63.507,0,0,0,319.5,254h0Zm24.718,92.7c-4.478,4.478-21.171.236-37.654-16.247s-20.724-33.176-16.259-37.654c3.882-3.882,8.62-10.659,15.7-1.835s3.61,11.3-.384,15.3c-2.8,2.8,3.038,9.878,9.14,15.981s13.184,11.943,15.987,9.153c4.006-4.006,6.474-7.491,15.3-.4s2.047,11.819-1.835,15.7h0Zm0,0" transform="translate(-256 -254)"/>
</svg>
