<svg xmlns="http://www.w3.org/2000/svg" width="94.5" height="95.125" viewBox="0 0 94.5 95.125">
  <metadata><?xpacket begin="﻿" id="W5M0MpCehiHzreSzNTczkc9d"?>
<x:xmpmeta xmlns:x="adobe:ns:meta/" x:xmptk="Adobe XMP Core 5.6-c138 79.159824, 2016/09/14-01:09:01        ">
   <rdf:RDF xmlns:rdf="http://www.w3.org/1999/02/22-rdf-syntax-ns#">
      <rdf:Description rdf:about=""/>
   </rdf:RDF>
</x:xmpmeta>
                                                                                                    
                                                                                                    
                                                                                                    
                                                                                                    
                                                                                                    
                                                                                                    
                                                                                                    
                                                                                                    
                                                                                                    
                                                                                                    
                                                                                                    
                                                                                                    
                                                                                                    
                                                                                                    
                                                                                                    
                                                                                                    
                                                                                                    
                                                                                                    
                                                                                                    
                                                                                                    
                           
<?xpacket end="w"?></metadata>
<defs>
    <style>
      .cls-1 {
        fill: #c39f54;
        fill-rule: evenodd;
      }
    </style>
  </defs>
  <path id="形状_4" data-name="形状 4" class="cls-1" d="M76.75,227.821A47.552,47.552,0,1,1,29.5,275.372,47.4,47.4,0,0,1,76.75,227.821Zm8.022,11.564h0ZM66.937,273.533A12.492,12.492,0,0,0,76.93,278.5H77.07a12.492,12.492,0,0,0,9.993-4.966,34.214,34.214,0,0,0,3.25-6.613c1.989-2.375,2.742-4.63,2.241-6.711a5.025,5.025,0,0,0-1.6-2.638,17.3,17.3,0,0,0-.621-7.881,12.31,12.31,0,0,0-6.964-7.472A16.231,16.231,0,0,0,77.33,241H77.189c-0.074,0-.137,0-0.189,0s-0.115,0-.19,0H76.67a16.231,16.231,0,0,0-6.042,1.219,12.31,12.31,0,0,0-6.964,7.472,17.31,17.31,0,0,0-.621,7.881,5.027,5.027,0,0,0-1.6,2.638c-0.5,2.081.253,4.336,2.241,6.711a34.215,34.215,0,0,0,3.25,6.612h0m13.874,8.742-1.739-1.9H74.928l-1.739,1.9a7.134,7.134,0,0,0,2.609,2.944l-2.609,6.6s1.908,2.72,3.812,3.421c1.9-.7,3.811-3.421,3.811-3.421l-2.609-6.6a7.138,7.138,0,0,0,2.609-2.944h0m23.322,5.015c-3.16-4.047-17.234-6.915-17.234-6.915,1.864,10.7-9.9,17.21-9.9,17.21s-11.764-6.508-9.9-17.21c0,0-14.074,2.868-17.235,6.915a13.131,13.131,0,0,0-2.706,10.283c0.248,1.767.683,2.838,3.54,3.427h52.6c2.858-.589,3.292-1.66,3.54-3.427a13.128,13.128,0,0,0-2.707-10.283h0m0,0h0Z" transform="translate(-29.5 -227.813)"/>
</svg>
