<svg xmlns="http://www.w3.org/2000/svg" width="95" height="95" viewBox="0 0 95 95">
  <defs>
    <style>
      .cls-1 {
        fill: #009b62;
        fill-rule: evenodd;
      }
    </style>
  </defs>
  <path id="形状_3" data-name="形状 3" class="cls-1" d="M77.5,199A47.5,47.5,0,1,0,125,246.5,47.5,47.5,0,0,0,77.5,199h0Zm25.375,56.9a4.717,4.717,0,0,1-1.849,3.19c-14.06,8.145-31.54,8.23-44.186.756a3.249,3.249,0,0,1-1.506-2.125,6.537,6.537,0,0,0,1.4-4.13,6.189,6.189,0,0,0-1.763-4.482v-5.923l21.73,7.875c2.153,0.833,1.717.838,3.853,0.011l22.321-8.216V255.9h0ZM114.86,233.61L80.593,246.2c-2.135.827-1.684,0.821-3.836-.012l-17.952-6.509,20.061-8.574a1.88,1.88,0,0,0,.955-2.387l-0.031-.083a1.683,1.683,0,0,0-2.233-1.021L53.819,237.871a0.387,0.387,0,0,0-.233.188c-3.128,2.589-4.04,6.591-4.162,11.064a4.188,4.188,0,0,1,.209,6.681c0.536,8.353,1.372,16.751-5.509,19.91a16.176,16.176,0,0,1-5.577-3.359c4.922-6.278,6.6-11.577,7.183-16.215a4.147,4.147,0,0,1,.338-7.362c0.049-4.566.286-8.5,3.941-12.289L41.755,233.5c-2.153-.833-2.166-2.178-0.031-3L76.463,217.9c2.135-.826,1.684-0.821,3.836.012l34.531,12.693c2.152,0.833,2.167,2.178.031,3h0Z" transform="translate(-30 -199)"/>
</svg>
