<svg xmlns="http://www.w3.org/2000/svg" width="95" height="95" viewBox="0 0 95 95">
  <defs>
    <style>
      .cls-1 {
        fill: #009b62;
        fill-rule: evenodd;
      }
    </style>
  </defs>
  <path id="形状_4_拷贝" data-name="形状 4 拷贝" class="cls-1" d="M76.5,437A47.5,47.5,0,1,1,124,389.5,47.5,47.5,0,0,1,76.5,437ZM53.916,411.886a3.466,3.466,0,0,0,3.056,2.946h39.95a3.475,3.475,0,0,0,3.056-2.946V396.461H96.791c-0.245-.02-0.787,0-0.787,0v14.691H57.885V396.461H53.916v15.425Zm29.089-14.737a6.569,6.569,0,0,0-.18-1.663,5.748,5.748,0,0,0-1.667-2.811,5.876,5.876,0,0,0-5.7-1.479,5.609,5.609,0,0,0-2.8,1.668,5.757,5.757,0,0,0-1.458,2.555,6.471,6.471,0,0,0-.168,2.242,4.351,4.351,0,0,0,.38,1.488q1.714,3.628,3.425,7.259c0.283,0.6.564,1.2,0.85,1.8a1.334,1.334,0,0,0,.938.747,1.478,1.478,0,0,0,1.759-.868q1.831-3.9,3.662-7.793c0.224-.476.461-0.948,0.658-1.435A4.67,4.67,0,0,0,83.005,397.149Zm13.786-32.977h-39.7a2.233,2.233,0,1,0,0,4.456h39.7A2.234,2.234,0,1,0,96.791,364.172Zm2.989,8.106,0.017,0.067h0.18Zm0.013,0.069H53.911l-4.762,12.79a6.949,6.949,0,1,0,13.9,0,6.949,6.949,0,1,0,13.9,0,6.948,6.948,0,1,0,13.9,0,6.946,6.946,0,1,0,13.892,0ZM77,400a3,3,0,1,1,3-3A2.992,2.992,0,0,1,77,400Z" transform="translate(-29 -342)"/>
</svg>
