<svg xmlns="http://www.w3.org/2000/svg" width="95" height="95" viewBox="0 0 95 95">
  <defs>
    <style>
      .cls-1 {
        fill: #009b62;
        fill-rule: evenodd;
      }
    </style>
  </defs>
  <path id="形状_4" data-name="形状 4" class="cls-1" d="M76.5,437A47.5,47.5,0,1,1,124,389.5,47.5,47.5,0,0,1,76.5,437ZM53.916,411.886a3.466,3.466,0,0,0,3.056,2.946h39.95a3.475,3.475,0,0,0,3.056-2.946V396.461H96.791c-0.245-.02-0.787,0-0.787,0v14.691H57.885V396.461H53.916v15.425Zm20.741-11.842H74.031c-0.174,0-.434.006-0.764,0.024a5.048,5.048,0,0,1-.932-0.024,1.023,1.023,0,0,0-.687.215,0.448,0.448,0,0,0-.153.533,3.111,3.111,0,0,1,.052.647V402.1a0.244,0.244,0,0,0,.159.294,2.67,2.67,0,0,0,.37.021h3.061c0.416,0,.626.089,0.626,0.27v1.024c0,0.187-.031.276-0.1,0.276H72.124a0.352,0.352,0,0,0-.419.156,2.587,2.587,0,0,0-.159.491,1.186,1.186,0,0,0,0,.508,1.766,1.766,0,0,1,.049.408,0.615,0.615,0,0,0,.688.7h3.168a0.383,0.383,0,0,1,.315.077,0.775,0.775,0,0,1,.055.352,4.369,4.369,0,0,1,.024.969c-0.015.472-.027,0.776-0.027,0.926a0.567,0.567,0,0,0,.684.591H78.2c0.281,0,.424-0.088.424-0.275v-2.155a0.454,0.454,0,0,1,.471-0.546h0.477c0.244,0,.525-0.006.819-0.031s0.59-.024.865-0.024h0.688c0.489,0,.746-0.181.746-0.533v-1.193a0.449,0.449,0,0,0-.526-0.49H79.091c-0.345.076-.532,0-0.532-0.215a3.623,3.623,0,0,0-.024-0.4,3.97,3.97,0,0,1-.021-0.457,0.338,0.338,0,0,1,.18-0.319,0.757,0.757,0,0,1,.4-0.113h3.116c0.345,0,.526-0.12.526-0.377v-1.3a0.645,0.645,0,0,0-.186-0.426A0.552,0.552,0,0,0,82.1,400.1H80.3a3.079,3.079,0,0,1-.556-0.055c-0.189-.043-0.226-0.15-0.132-0.328,0.043-.064.208-0.322,0.507-0.754s0.626-.892,1-1.377,0.7-.947,1.033-1.376c0.312-.432.507-0.7,0.574-0.815a0.823,0.823,0,0,0-.318-1.021,2.543,2.543,0,0,0-.425-0.331,2.988,2.988,0,0,0-.571-0.319,0.772,0.772,0,0,0-.614-0.052,1.769,1.769,0,0,0-.443.484c-0.07.105-.245,0.368-0.532,0.779s-0.577.858-.9,1.327-0.608.892-.871,1.263a6.125,6.125,0,0,0-.446.681,0.333,0.333,0,0,1-.4.162,0.5,0.5,0,0,1-.388-0.27,7.565,7.565,0,0,0-.48-0.628c-0.284-.334-0.587-0.717-0.9-1.156s-0.62-.83-0.92-1.214-0.5-.637-0.611-0.787q-0.477-.915-1-0.589a4.814,4.814,0,0,0-.666.454,4.575,4.575,0,0,1-.55.414,0.638,0.638,0,0,0-.159.968c0.6,0.717,1.127,1.383,1.586,2,0.385,0.5.752,0.981,1.109,1.462,0.348,0.46.559,0.73,0.626,0.809C74.941,399.967,74.868,400.044,74.657,400.044Zm22.134-35.872h-39.7a2.233,2.233,0,1,0,0,4.456h39.7A2.234,2.234,0,1,0,96.791,364.172Zm2.989,8.106,0.017,0.067h0.18Zm0.013,0.069H53.911l-4.762,12.79a6.949,6.949,0,1,0,13.9,0,6.949,6.949,0,1,0,13.9,0,6.948,6.948,0,1,0,13.9,0,6.946,6.946,0,1,0,13.892,0Z" transform="translate(-29 -342)"/>
</svg>
