<svg xmlns="http://www.w3.org/2000/svg" width="27.344" height="27.281" viewBox="0 0 27.344 27.281">
  <defs>
    <style>
      .cls-1 {
        fill: #fff;
        fill-rule: evenodd;
      }
    </style>
  </defs>
  <path id="形状_5" data-name="形状 5" class="cls-1" d="M567.228,354.352a13.761,13.761,0,0,1-3.756-.525,13.643,13.643,0,1,1,14.046-22.082,0.688,0.688,0,0,1-.52,1.141,0.7,0.7,0,0,1-.525-0.238,12.248,12.248,0,1,0,2.47,4.418,0.681,0.681,0,0,1,.048-0.525,0.688,0.688,0,0,1,.406-0.338,0.7,0.7,0,0,1,.208-0.031,0.684,0.684,0,0,1,.656.484A13.665,13.665,0,0,1,567.228,354.352Zm-5.391-5.783a0.69,0.69,0,0,1-.69-0.689,10.183,10.183,0,0,1,2.8-6.886l0.326-.291-0.326-.291a10.187,10.187,0,0,1-2.8-6.886,0.69,0.69,0,0,1,.69-0.69h10.739a0.69,0.69,0,0,1,.69.69c0,2.232-.89,5.316-2.592,6.891l-0.31.286,0.31,0.286c1.7,1.575,2.592,4.659,2.592,6.891a0.69,0.69,0,0,1-.69.689H561.837Zm0.781-13.905c0.357,2.337,1.735,4.984,3.422,5.367a0.689,0.689,0,0,1,0,1.344c-1.687.383-3.065,3.029-3.422,5.367l-0.068.449h9.317l-0.057-.44a10.139,10.139,0,0,0-1.06-3.392,3.578,3.578,0,0,0-2.131-1.984,0.689,0.689,0,0,1,0-1.345,3.575,3.575,0,0,0,2.131-1.984,10.127,10.127,0,0,0,1.06-3.391l0.057-.44H562.55Zm3.5,11.382a0.689,0.689,0,1,1,0-1.378h2.26a0.689,0.689,0,1,1,0,1.378h-2.26Z" transform="translate(-553.531 -327.063)"/>
</svg>
