<svg xmlns="http://www.w3.org/2000/svg" width="48" height="48" viewBox="0 0 48 41">
  <defs>
    <style>
      .cls-1 {
        fill: #4d4d4d;
        fill-rule: evenodd;
      }
    </style>
  </defs>
  <path id="矩形_3" data-name="矩形 3" class="cls-1" d="M64.813,1098H59.188a2.19,2.19,0,0,1,0-4.38h5.625A2.19,2.19,0,0,1,64.813,1098Zm-5.625-14.63a2.185,2.185,0,1,1,0-4.37h5.625a2.185,2.185,0,1,1,0,4.37H59.188Zm5.609,7.22H59.2a2.2,2.2,0,1,1,0-4.4H64.8A2.2,2.2,0,1,1,64.8,1090.59ZM93,1104H83v-1h9a6,6,0,0,0,6-6v-16a6,6,0,0,0-6-6H58a6,6,0,0,0-6,6v16a6,6,0,0,0,6,6H68v1H57a6,6,0,0,1-6-6v-18a6,6,0,0,1,6-6H93a6,6,0,0,1,6,6v18A6,6,0,0,1,93,1104Zm-15.187-6H72.188a2.19,2.19,0,0,1,0-4.38h5.625A2.19,2.19,0,0,1,77.813,1098Zm-5.625-14.63a2.185,2.185,0,1,1,0-4.37h5.625a2.185,2.185,0,1,1,0,4.37H72.188Zm5.609,7.22H72.2a2.2,2.2,0,1,1,0-4.4H77.8A2.2,2.2,0,1,1,77.8,1090.59ZM90.813,1098H85.188a2.19,2.19,0,0,1,0-4.38h5.625A2.19,2.19,0,0,1,90.813,1098Zm-5.625-14.63a2.185,2.185,0,1,1,0-4.37h5.625a2.185,2.185,0,1,1,0,4.37H85.188Zm5.609,7.22H85.2a2.2,2.2,0,1,1,0-4.4H90.8A2.2,2.2,0,1,1,90.8,1090.59ZM70,1107v-5H81v5h2s-7.234,8.04-7.853,8L68,1107h2Z" transform="translate(-51 -1074)"/>
</svg>
