<svg xmlns="http://www.w3.org/2000/svg" width="64" height="64" viewBox="0 0 64.812 38">
  <defs>
    <style>
      .cls-1 {
        fill: #4d4d4d;
        fill-rule: evenodd;
      }
    </style>
  </defs>
  <path id="圆角矩形_2" data-name="圆角矩形 2" class="cls-1" d="M579.661,840H539s-6.3-6.269-14.419-14.385c-2.565-2.566-3.791-5.252.116-9.16C533,808.156,540,802,540,802h40.023c0.415,0,6.977-.325,6.977,6.834V833.6C587,839.309,580.518,840,579.661,840ZM586,809.715c0-6.727-6.277-6.421-6.675-6.421H540.04s-6.7,5.784-14.639,13.583c-3.738,3.671-2.565,6.2-.111,8.606C533.054,833.11,539.083,839,539.083,839h39.9c0.819,0,7.02-.649,7.02-6.017V809.715Zm-22.067,20.393-5.371-6.646-5.03,6.908a1.5,1.5,0,0,1-2.425-1.766l5.5-7.558-5.876-7.272a1.5,1.5,0,1,1,2.333-1.885l5.371,6.646,5.03-6.908a1.5,1.5,0,1,1,2.425,1.766l-5.5,7.558,5.876,7.271A1.5,1.5,0,1,1,563.933,830.108Z" transform="translate(-522.188 -802)"/>
</svg>
