<svg xmlns="http://www.w3.org/2000/svg" width="72" height="72" viewBox="0 0 72 72">
  <defs>
    <style>
      .cls-1 {
        fill: #999;
        fill-rule: evenodd;
      }
    </style>
  </defs>
  <path id="形状_6" data-name="形状 6" class="cls-1" d="M272,166a36,36,0,1,1-36,36A36,36,0,0,1,272,166Zm11.39,45.4a3.1,3.1,0,1,1-3.1-3.1,3.1,3.1,0,0,1,3.1,3.1h0ZM259.8,208.3a3.1,3.1,0,1,0,3.1,3.1,3.1,3.1,0,0,0-3.1-3.1h0Zm8.549-11.629V208.99a2.678,2.678,0,0,1-2.678,2.678h-1.532c0-.09.013-0.178,0.013-0.269a4.352,4.352,0,0,0-8.7,0c0,0.091.009,0.179,0.014,0.269h-1.532a2.748,2.748,0,0,1-2.678-2.678c0-1.485,2.113-10.43,2.678-12.318s1.2-2.678,2.678-2.678h9.063a2.678,2.678,0,0,1,2.678,2.678h0Zm-2.424,1.426a1.84,1.84,0,0,0-1.84-1.84h-6.229c-1.016,0-1.462.876-1.84,1.84a36.657,36.657,0,0,0-.98,4.572c-0.315,1.16-.036,1.829.98,1.829h8.069a1.84,1.84,0,0,0,1.84-1.84V198.1h0Zm25.827-7.463v18.9a2.133,2.133,0,0,1-2.132,2.132h-4.989c0.006-.09.014-0.178,0.014-0.269a4.352,4.352,0,0,0-8.7,0c0,0.091.008,0.179,0.014,0.269h-4.969a2.132,2.132,0,0,1-2.132-2.132v-18.9a2.132,2.132,0,0,1,2.132-2.133h18.634a2.133,2.133,0,0,1,2.132,2.133h0Zm-7.2,3.327h0a6.953,6.953,0,0,1-3.9-1.664,0.9,0.9,0,0,0-1.207,0,6.886,6.886,0,0,1-3.9,1.665,0.9,0.9,0,0,0-.9.9v2.715a6.028,6.028,0,0,0,.033.633,6.838,6.838,0,0,0,2.259,4.165,19.565,19.565,0,0,0,2.594,2.1,0.9,0.9,0,0,0,1.028,0,18.825,18.825,0,0,0,2.763-2.272,9.259,9.259,0,0,0,1.145-1.413,5.807,5.807,0,0,0,.955-2.691c0.016-.173.023-0.347,0.023-0.523v-2.715a0.9,0.9,0,0,0-.9-0.9h0" transform="translate(-236 -166)"/>
</svg>
