<svg xmlns="http://www.w3.org/2000/svg" width="72" height="72" viewBox="0 0 72 72">
  <defs>
    <style>
      .cls-1 {
        fill: #009b62;
        fill-rule: evenodd;
      }
    </style>
  </defs>
  <path id="形状_3_拷贝_6" data-name="形状 3 拷贝 6" class="cls-1" d="M272,291a36,36,0,1,1-36,36A36,36,0,0,1,272,291Zm-8.132,22.627a2.287,2.287,0,0,1-.466-0.574,2.614,2.614,0,0,1-.276-0.695,1.584,1.584,0,0,1,0-.731,1.563,1.563,0,0,1,.363-0.678,0.7,0.7,0,0,1,.552-0.278,1.883,1.883,0,0,1,.535.174q0.294,0.139.708,0.313a2.684,2.684,0,0,0,1.036.174,1.219,1.219,0,0,0,.88-0.313,7.074,7.074,0,0,0,.622-0.678,5.931,5.931,0,0,1,.638-0.678,1.336,1.336,0,0,1,.933-0.313,1.271,1.271,0,0,1,.915.313,5.734,5.734,0,0,1,.6.678,3.838,3.838,0,0,0,.639.661,1.51,1.51,0,0,0,.984.3,1.212,1.212,0,0,0,.845-0.3,6.944,6.944,0,0,0,.639-0.661,6.336,6.336,0,0,1,.673-0.678,1.4,1.4,0,0,1,.95-0.313,1.334,1.334,0,0,1,.932.313,5.037,5.037,0,0,1,.622.678,5.647,5.647,0,0,0,.6.678,1.268,1.268,0,0,0,.915.313,2.551,2.551,0,0,0,1.018-.174q0.4-.174.691-0.313a1.883,1.883,0,0,1,.535-0.174,0.7,0.7,0,0,1,.552.278,1.412,1.412,0,0,1,.346.678,1.953,1.953,0,0,1,0,.731,1.983,1.983,0,0,1-.277.695,3.328,3.328,0,0,1-.448.574c-0.185.162-.466,0.44-0.846,0.834s-0.766.8-1.157,1.217q-0.69.731-1.45,1.565H267.321q-0.794-.836-1.45-1.565-0.586-.625-1.157-1.217c-0.38-.394-0.661-0.672-0.846-0.834h0Zm14.881,5.18a21.75,21.75,0,0,1,4.7,3.582q0.863,0.9,1.726,2a13.506,13.506,0,0,1,1.519,2.434,15.853,15.853,0,0,1,1.071,2.886,12.8,12.8,0,0,1,.414,3.32,14.608,14.608,0,0,1-.9,5.286,9.722,9.722,0,0,1-2.814,3.963,13.089,13.089,0,0,1-4.868,2.5,25.208,25.208,0,0,1-7.06.869,25.546,25.546,0,0,1-7.113-.869,13.085,13.085,0,0,1-4.885-2.5,9.722,9.722,0,0,1-2.814-3.963,14.608,14.608,0,0,1-.9-5.286,13.3,13.3,0,0,1,.4-3.32,14.375,14.375,0,0,1,1.07-2.886,15.811,15.811,0,0,1,1.5-2.434,19.647,19.647,0,0,1,1.727-2,21.408,21.408,0,0,1,4.73-3.582h12.5Zm1.589,11.057h-4.351l2.762-3.72-1.277-.974-2.8,3.756,1.243,0.938H270.6l1.312-.973-2.8-3.79-1.312.973,2.8,3.79h-4.35v1.565h6.284v3.164h-6.284v1.6h6.284v3.164h1.519v-3.164h6.284v-1.6h-6.284v-3.164h6.284v-1.565h0Z" transform="translate(-236 -291)"/>
</svg>
