<svg xmlns="http://www.w3.org/2000/svg" width="72" height="72" viewBox="0 0 72 72">
  <defs>
    <style>
      .cls-1 {
        fill: #999;
        fill-rule: evenodd;
      }
    </style>
  </defs>
  <path id="形状_3_拷贝_5" data-name="形状 3 拷贝 5" class="cls-1" d="M159,291a36,36,0,1,1-36,36A36,36,0,0,1,159,291Zm13.628,37.123a4.328,4.328,0,0,1-4.375-4.28,4.377,4.377,0,0,1-8.751,0,4.377,4.377,0,0,1-8.751,0,4.377,4.377,0,0,1-8.751,0l3-7.835h28.892L177,323.843a4.323,4.323,0,0,1-4.372,4.28h0Zm1.254-12.157,0.125,0.041h-0.114l-0.011-.041h0ZM172,313.73H147a1.371,1.371,0,1,1,0-2.73h25a1.372,1.372,0,1,1,0,2.73h0Zm-24.5,17.05v9h24v-9s0.341-.012.5,0h2.008v9.449a2.161,2.161,0,0,1-1.925,1.8H146.927a2.155,2.155,0,0,1-1.925-1.8V330.78h2.5Zm0,0" transform="translate(-123 -291)"/>
</svg>
