<svg xmlns="http://www.w3.org/2000/svg" width="30" height="30" viewBox="0 0 30 30">
  <metadata><?xpacket begin="﻿" id="W5M0MpCehiHzreSzNTczkc9d"?>
<x:xmpmeta xmlns:x="adobe:ns:meta/" x:xmptk="Adobe XMP Core 5.6-c138 79.159824, 2016/09/14-01:09:01        ">
   <rdf:RDF xmlns:rdf="http://www.w3.org/1999/02/22-rdf-syntax-ns#">
      <rdf:Description rdf:about=""/>
   </rdf:RDF>
</x:xmpmeta>
                                                                                                    
                                                                                                    
                                                                                                    
                                                                                                    
                                                                                                    
                                                                                                    
                                                                                                    
                                                                                                    
                                                                                                    
                                                                                                    
                                                                                                    
                                                                                                    
                                                                                                    
                                                                                                    
                                                                                                    
                                                                                                    
                                                                                                    
                                                                                                    
                                                                                                    
                                                                                                    
                           
<?xpacket end="w"?></metadata>
<defs>
    <style>
      .cls-1 {
        fill: #fff;
        fill-rule: evenodd;
      }
    </style>
  </defs>
  <path id="形状_1" data-name="形状 1" class="cls-1" d="M616.594,156.781H610.5a1.406,1.406,0,1,1,0-2.812h2.422A12.166,12.166,0,0,0,590.812,161,1.406,1.406,0,0,1,588,161h0a14.986,14.986,0,0,1,27.188-8.714V149.75a1.406,1.406,0,1,1,2.812,0v5.625a1.407,1.407,0,0,1-1.406,1.406h0Zm-27.188,8.438H595.5a1.406,1.406,0,0,1,0,2.812h-2.441A12.178,12.178,0,0,0,615.188,161,1.406,1.406,0,1,1,618,161h0a14.976,14.976,0,0,1-27.188,8.693v2.557a1.406,1.406,0,0,1-2.812,0v-5.625a1.407,1.407,0,0,1,1.406-1.406h0Zm0,0" transform="translate(-588 -146)"/>
</svg>
