<svg xmlns="http://www.w3.org/2000/svg" width="72" height="72" viewBox="0 0 72 72">
  <defs>
    <style>
      .cls-1 {
        fill: #999;
        fill-rule: evenodd;
      }
    </style>
  </defs>
  <path id="形状_5" data-name="形状 5" class="cls-1" d="M386,166a36,36,0,1,1-36,36A36,36,0,0,1,386,166Zm15.084,21.335h0c-6.474,0-12.566-5.5-12.627-5.559a2.856,2.856,0,0,0-3.91,0c-0.092.083-6.121,5.563-12.63,5.563a2.96,2.96,0,0,0-2.917,3v9.072a20.488,20.488,0,0,0,.108,2.113c0.509,4.875,2.827,9.336,7.321,13.919a63.63,63.63,0,0,0,8.405,7.023,2.849,2.849,0,0,0,3.332,0,61.386,61.386,0,0,0,8.955-7.594,30.736,30.736,0,0,0,3.709-4.722,19.8,19.8,0,0,0,3.1-8.992q0.075-.864.074-1.747v-9.072a2.959,2.959,0,0,0-2.916-3h0m-6.091,22.278V191.5l-2.84-2.5-9.454,3.562v0.891l8.585-2.918V210.92H397v-1.307h-2.007Zm-15.371-5.581,4.5-.908v-2.3l-4.5,1.193v2.018h0Zm0,6.919h4.5v-2.417l-4.5.33v2.087h0Zm0-3.47,4.5-.439v-2.3l-4.5.763v1.975h0Zm0-6.964,4.5-1.249v-2.393l-4.5,1.536v2.106h0Zm9.5-5.949-2.543-1.557-9.57,3.48L377,211h1.261V197.192l7.161-2.378v16.113h3.7V194.568h0Z" transform="translate(-350 -166)"/>
</svg>
