<svg xmlns="http://www.w3.org/2000/svg" width="21.781" height="21.75" viewBox="0 0 21.781 21.75">
  <defs>
    <style>
      .cls-1 {
        fill: #009b62;
        fill-rule: evenodd;
      }
    </style>
  </defs>
  <path id="形状_6" data-name="形状 6" class="cls-1" d="M497.573,301.132a10.842,10.842,0,0,1-4.222-.847,0.488,0.488,0,0,1,.38-0.9,9.9,9.9,0,1,0-4.564-3.875,0.487,0.487,0,1,1-.826.518A10.906,10.906,0,1,1,497.573,301.132Zm-4.011-3.281a2.836,2.836,0,0,1-2-.818,2.892,2.892,0,0,1-.864-1.99,2.872,2.872,0,0,1,2.776-2.967h-0.007l0.067,0,0.038,0a2.815,2.815,0,0,1,1.661.547l0.037,0.027,0.043,0.015a1.77,1.77,0,0,0,.587.1,2.727,2.727,0,0,0,2.074-1.335,3.831,3.831,0,0,0,.742-1.481,1.515,1.515,0,0,0-.273-1.277l-0.028-.035-0.036-.026a2.9,2.9,0,0,1-.415-0.369l0,0,0,0c-0.015-.015-0.031-0.033-0.049-0.054l0-.006,0,0a2.848,2.848,0,0,1,2.051-4.749l0.093,0a2.872,2.872,0,0,1,2.784,2.231l0,0.015,0,0.014a6.068,6.068,0,0,1,.147,2.664,11.555,11.555,0,0,1-2.356,5.244c-2.852,3.814-5.585,4.226-6.628,4.226h-0.312v0.042h-0.121Zm0.1-1.045a0.736,0.736,0,0,1,.161.017l0.033,0.007h0.1a5.112,5.112,0,0,0,2.192-.567A10.464,10.464,0,0,0,499.838,293c2.856-3.814,2.218-6.543,2.047-7.086a1.922,1.922,0,0,0-1.85-1.523h-0.009a1.9,1.9,0,0,0-1.884,1.944,1.866,1.866,0,0,0,.492,1.2l0,0.006,0.007,0.009,0.01,0.011a1.883,1.883,0,0,0,.348.3,0.515,0.515,0,0,1,.095.082l0,0a2.466,2.466,0,0,1,.606,1.375,3.915,3.915,0,0,1-.954,2.694,3.6,3.6,0,0,1-2.853,1.727,2.777,2.777,0,0,1-1.068-.219,0.462,0.462,0,0,1-.113-0.067,1.872,1.872,0,0,0-1.155-.41h-0.009a1.917,1.917,0,0,0-1.371.59,1.89,1.89,0,0,0,1.376,3.184,0.31,0.31,0,0,1-.306-0.27l0.226-.342,0.133,0.61Z" transform="translate(-486.688 -279.375)"/>
</svg>
