<svg xmlns="http://www.w3.org/2000/svg" width="72" height="72" viewBox="0 0 72 72">
  <defs>
    <style>
      .cls-1 {
        fill: #009b62;
        fill-rule: evenodd;
      }
    </style>
  </defs>
  <path id="形状_3_拷贝_7" data-name="形状 3 拷贝 7" class="cls-1" d="M386,291a36,36,0,1,1-36,36A36,36,0,0,1,386,291Zm-8.259,52.738a0.953,0.953,0,1,1,.9-1.68,16.4,16.4,0,0,0,3.8,1.478,16.543,16.543,0,1,0-8.541-5.32,0.951,0.951,0,1,1-1.449,1.233,18.428,18.428,0,1,1,5.291,4.289h0Zm9.716-16.548v2.675H392.2a0.957,0.957,0,0,1,0,1.913h-4.739v3a0.957,0.957,0,0,1-1.914,0v-3H380.8a0.957,0.957,0,0,1,0-1.913h4.739V327.19H380.8a0.957,0.957,0,0,1,0-1.913h4.411l-5.035-4.335a0.953,0.953,0,0,1,1.248-1.441l5.073,4.368,5.071-4.368a0.953,0.953,0,0,1,1.248,1.441l-5.035,4.335H392.2a0.957,0.957,0,0,1,0,1.913h-4.739Z" transform="translate(-350 -291)"/>
</svg>
