<svg xmlns="http://www.w3.org/2000/svg" width="72" height="72" viewBox="0 0 72 72">
  <defs>
    <style>
      .cls-1 {
        fill: #009b62;
        fill-rule: evenodd;
      }
    </style>
  </defs>
  <path id="形状_3_拷贝_8" data-name="形状 3 拷贝 8" class="cls-1" d="M159,166a36,36,0,1,1-36,36A36,36,0,0,1,159,166Zm-6.34,34.6a7.873,7.873,0,0,0,6.3,3.129h0.088a7.872,7.872,0,0,0,6.3-3.129,21.545,21.545,0,0,0,2.047-4.166c1.253-1.5,1.728-2.917,1.412-4.228a3.165,3.165,0,0,0-1.006-1.662,10.893,10.893,0,0,0-.391-4.965,7.758,7.758,0,0,0-4.388-4.707,10.222,10.222,0,0,0-3.806-.768h-0.416a10.222,10.222,0,0,0-3.806.768,7.758,7.758,0,0,0-4.388,4.707,10.893,10.893,0,0,0-.391,4.965A3.165,3.165,0,0,0,149.2,192.2c-0.316,1.312.159,2.732,1.412,4.228a21.545,21.545,0,0,0,2.047,4.166h0m23.435,8.667c-1.992-2.55-10.858-4.357-10.858-4.357,1.174,6.742-6.237,5.442-6.237,5.442s-7.411,1.3-6.237-5.442c0,0-8.866,1.807-10.858,4.357a8.274,8.274,0,0,0-1.705,6.478c0.157,1.113.43,1.788,2.23,2.159h33.14c1.8-.371,2.073-1.046,2.23-2.159a8.27,8.27,0,0,0-1.705-6.478h0m0,0h0Z" transform="translate(-123 -166)"/>
</svg>
