<svg xmlns="http://www.w3.org/2000/svg" width="79" height="80" viewBox="0 0 79 80">
<defs>
    <style>
      .cls-1 {
        fill: #fc5f5f;
        fill-rule: evenodd;
      }
    </style>
  </defs>
  <path id="形状_5" data-name="形状 5" class="cls-1" d="M76.5,459C54.685,459,37,441.091,37,419s17.685-40,39.5-40S116,396.909,116,419,98.315,459,76.5,459Zm10.4-57a12.126,12.126,0,0,0-9.9,5.089,12.126,12.126,0,0,0-22,6.854,26.517,26.517,0,0,0,22,26.023V440a26.423,26.423,0,0,0,22-26.057A12.022,12.022,0,0,0,86.9,402ZM77,437.773l-0.057-.02A24.276,24.276,0,0,1,57.2,413.943a9.923,9.923,0,0,1,18.577-4.7A11.774,11.774,0,0,0,75,411.76h2.245A9.915,9.915,0,0,1,96.8,413.943,24.23,24.23,0,0,1,77,437.773ZM66.644,407.4a16.462,16.462,0,0,0-6.176,6.1,4.379,4.379,0,0,0,1.8,1.25,14.266,14.266,0,0,1,5.641-5.567A4.318,4.318,0,0,0,66.644,407.4Zm16.562-18.664h0Z" transform="translate(-37 -379)"/>
</svg>
